<mxfile host="app.diagrams.net" modified="2023-08-08T06:49:45.074Z" agent="Mozilla/5.0 (Windows NT 10.0; Win64; x64) AppleWebKit/537.36 (KHTML, like Gecko) Chrome/115.0.0.0 Safari/537.36 Edg/115.0.1901.188" etag="72qTXNfcWtzVrCzhcVRT" version="21.6.6" type="github">
  <diagram name="Page-1" id="3A8_eei9raIrwsvAf__b">
    <mxGraphModel dx="3090" dy="2004" grid="1" gridSize="10" guides="1" tooltips="1" connect="1" arrows="1" fold="1" page="1" pageScale="1" pageWidth="850" pageHeight="1100" math="0" shadow="0">
      <root>
        <mxCell id="0" />
        <mxCell id="1" parent="0" />
        <mxCell id="TJSnQC33qVE7md1FfvLm-20" style="edgeStyle=orthogonalEdgeStyle;rounded=0;orthogonalLoop=1;jettySize=auto;html=1;" edge="1" parent="1" source="TJSnQC33qVE7md1FfvLm-2" target="TJSnQC33qVE7md1FfvLm-5">
          <mxGeometry relative="1" as="geometry" />
        </mxCell>
        <mxCell id="TJSnQC33qVE7md1FfvLm-2" value="" style="dashed=0;outlineConnect=0;html=1;align=center;labelPosition=center;verticalLabelPosition=bottom;verticalAlign=top;shape=mxgraph.weblogos.mongodb" vertex="1" parent="1">
          <mxGeometry x="785" y="-366" width="51.2" height="86.2" as="geometry" />
        </mxCell>
        <mxCell id="TJSnQC33qVE7md1FfvLm-18" style="edgeStyle=orthogonalEdgeStyle;rounded=0;orthogonalLoop=1;jettySize=auto;html=1;" edge="1" parent="1" source="TJSnQC33qVE7md1FfvLm-3" target="TJSnQC33qVE7md1FfvLm-5">
          <mxGeometry relative="1" as="geometry" />
        </mxCell>
        <mxCell id="TJSnQC33qVE7md1FfvLm-23" style="edgeStyle=orthogonalEdgeStyle;rounded=0;orthogonalLoop=1;jettySize=auto;html=1;entryX=1;entryY=0.5;entryDx=0;entryDy=0;entryPerimeter=0;" edge="1" parent="1" source="TJSnQC33qVE7md1FfvLm-3" target="TJSnQC33qVE7md1FfvLm-4">
          <mxGeometry relative="1" as="geometry" />
        </mxCell>
        <mxCell id="TJSnQC33qVE7md1FfvLm-3" value="" style="outlineConnect=0;dashed=0;verticalLabelPosition=bottom;verticalAlign=top;align=center;html=1;shape=mxgraph.aws3.s3;fillColor=#E05243;gradientColor=none;" vertex="1" parent="1">
          <mxGeometry x="414" y="-370.4" width="96.5" height="93" as="geometry" />
        </mxCell>
        <mxCell id="TJSnQC33qVE7md1FfvLm-17" style="edgeStyle=orthogonalEdgeStyle;rounded=0;orthogonalLoop=1;jettySize=auto;html=1;entryX=0;entryY=0.5;entryDx=0;entryDy=0;entryPerimeter=0;" edge="1" parent="1" source="TJSnQC33qVE7md1FfvLm-4" target="TJSnQC33qVE7md1FfvLm-3">
          <mxGeometry relative="1" as="geometry" />
        </mxCell>
        <mxCell id="TJSnQC33qVE7md1FfvLm-24" style="edgeStyle=orthogonalEdgeStyle;rounded=0;orthogonalLoop=1;jettySize=auto;html=1;" edge="1" parent="1" source="TJSnQC33qVE7md1FfvLm-4" target="TJSnQC33qVE7md1FfvLm-9">
          <mxGeometry relative="1" as="geometry" />
        </mxCell>
        <mxCell id="TJSnQC33qVE7md1FfvLm-4" value="" style="outlineConnect=0;dashed=0;verticalLabelPosition=bottom;verticalAlign=top;align=center;html=1;shape=mxgraph.aws3.cloudfront;fillColor=#F58536;gradientColor=none;" vertex="1" parent="1">
          <mxGeometry x="210" y="-370" width="76.5" height="93" as="geometry" />
        </mxCell>
        <mxCell id="TJSnQC33qVE7md1FfvLm-19" value="" style="edgeStyle=orthogonalEdgeStyle;rounded=0;orthogonalLoop=1;jettySize=auto;html=1;" edge="1" parent="1" source="TJSnQC33qVE7md1FfvLm-5" target="TJSnQC33qVE7md1FfvLm-2">
          <mxGeometry relative="1" as="geometry" />
        </mxCell>
        <mxCell id="TJSnQC33qVE7md1FfvLm-22" style="edgeStyle=orthogonalEdgeStyle;rounded=0;orthogonalLoop=1;jettySize=auto;html=1;" edge="1" parent="1" source="TJSnQC33qVE7md1FfvLm-5" target="TJSnQC33qVE7md1FfvLm-3">
          <mxGeometry relative="1" as="geometry" />
        </mxCell>
        <mxCell id="TJSnQC33qVE7md1FfvLm-5" value="" style="image;aspect=fixed;html=1;points=[];align=center;fontSize=12;image=img/lib/azure2/app_services/App_Services.svg;" vertex="1" parent="1">
          <mxGeometry x="610" y="-361.6" width="76.2" height="76.2" as="geometry" />
        </mxCell>
        <mxCell id="TJSnQC33qVE7md1FfvLm-16" style="edgeStyle=orthogonalEdgeStyle;rounded=0;orthogonalLoop=1;jettySize=auto;html=1;entryX=0;entryY=0.5;entryDx=0;entryDy=0;entryPerimeter=0;" edge="1" parent="1" source="TJSnQC33qVE7md1FfvLm-9" target="TJSnQC33qVE7md1FfvLm-4">
          <mxGeometry relative="1" as="geometry" />
        </mxCell>
        <mxCell id="TJSnQC33qVE7md1FfvLm-9" value="" style="sketch=0;outlineConnect=0;fontColor=#232F3E;gradientColor=none;fillColor=#232F3D;strokeColor=none;dashed=0;verticalLabelPosition=bottom;verticalAlign=top;align=center;html=1;fontSize=12;fontStyle=0;aspect=fixed;pointerEvents=1;shape=mxgraph.aws4.users;" vertex="1" parent="1">
          <mxGeometry x="10" y="-362.5" width="78" height="78" as="geometry" />
        </mxCell>
        <mxCell id="TJSnQC33qVE7md1FfvLm-27" value="Digital Ocean MongoDb&amp;nbsp;" style="rounded=1;whiteSpace=wrap;html=1;fontSize=15;" vertex="1" parent="1">
          <mxGeometry x="740" y="-240" width="120" height="60" as="geometry" />
        </mxCell>
        <mxCell id="TJSnQC33qVE7md1FfvLm-28" value="Azure Web App" style="rounded=1;whiteSpace=wrap;html=1;fontSize=15;" vertex="1" parent="1">
          <mxGeometry x="588.1" y="-240" width="120" height="60" as="geometry" />
        </mxCell>
        <mxCell id="TJSnQC33qVE7md1FfvLm-29" value="Aws S3&amp;nbsp;" style="rounded=1;whiteSpace=wrap;html=1;fontSize=15;" vertex="1" parent="1">
          <mxGeometry x="402.25" y="-240" width="120" height="60" as="geometry" />
        </mxCell>
        <mxCell id="TJSnQC33qVE7md1FfvLm-30" value="Aws Cloud Front&amp;nbsp;" style="rounded=1;whiteSpace=wrap;html=1;fontSize=15;" vertex="1" parent="1">
          <mxGeometry x="190" y="-240" width="120" height="60" as="geometry" />
        </mxCell>
        <mxCell id="TJSnQC33qVE7md1FfvLm-31" value="End User" style="rounded=1;whiteSpace=wrap;html=1;fontSize=15;" vertex="1" parent="1">
          <mxGeometry y="-240" width="120" height="60" as="geometry" />
        </mxCell>
        <mxCell id="TJSnQC33qVE7md1FfvLm-52" style="edgeStyle=orthogonalEdgeStyle;rounded=0;orthogonalLoop=1;jettySize=auto;html=1;entryX=0.497;entryY=-0.027;entryDx=0;entryDy=0;entryPerimeter=0;" edge="1" parent="1" source="TJSnQC33qVE7md1FfvLm-32" target="TJSnQC33qVE7md1FfvLm-5">
          <mxGeometry relative="1" as="geometry" />
        </mxCell>
        <mxCell id="TJSnQC33qVE7md1FfvLm-32" value="&lt;font style=&quot;font-size: 30px;&quot;&gt;Backend&lt;/font&gt;" style="ellipse;shape=cloud;whiteSpace=wrap;html=1;" vertex="1" parent="1">
          <mxGeometry x="555" y="-550" width="300" height="140" as="geometry" />
        </mxCell>
        <mxCell id="TJSnQC33qVE7md1FfvLm-38" style="edgeStyle=orthogonalEdgeStyle;rounded=0;orthogonalLoop=1;jettySize=auto;html=1;entryX=0.5;entryY=0;entryDx=0;entryDy=0;entryPerimeter=0;" edge="1" parent="1" source="TJSnQC33qVE7md1FfvLm-33" target="TJSnQC33qVE7md1FfvLm-3">
          <mxGeometry relative="1" as="geometry" />
        </mxCell>
        <mxCell id="TJSnQC33qVE7md1FfvLm-33" value="&lt;font style=&quot;font-size: 30px;&quot;&gt;Frontend&lt;/font&gt;" style="ellipse;shape=cloud;whiteSpace=wrap;html=1;labelBackgroundColor=default;" vertex="1" parent="1">
          <mxGeometry x="204" y="-654" width="300" height="140" as="geometry" />
        </mxCell>
        <mxCell id="TJSnQC33qVE7md1FfvLm-36" style="edgeStyle=orthogonalEdgeStyle;rounded=0;orthogonalLoop=1;jettySize=auto;html=1;" edge="1" parent="1" source="TJSnQC33qVE7md1FfvLm-34" target="TJSnQC33qVE7md1FfvLm-33">
          <mxGeometry relative="1" as="geometry" />
        </mxCell>
        <mxCell id="TJSnQC33qVE7md1FfvLm-53" style="edgeStyle=orthogonalEdgeStyle;rounded=0;orthogonalLoop=1;jettySize=auto;html=1;entryX=0.956;entryY=0.596;entryDx=0;entryDy=0;entryPerimeter=0;" edge="1" parent="1" source="TJSnQC33qVE7md1FfvLm-34" target="TJSnQC33qVE7md1FfvLm-32">
          <mxGeometry relative="1" as="geometry" />
        </mxCell>
        <mxCell id="TJSnQC33qVE7md1FfvLm-34" value="" style="shape=image;html=1;verticalAlign=top;verticalLabelPosition=bottom;labelBackgroundColor=#ffffff;imageAspect=0;aspect=fixed;image=https://cdn4.iconfinder.com/data/icons/ionicons/512/icon-social-github-128.png" vertex="1" parent="1">
          <mxGeometry x="1033" y="-663" width="158" height="158" as="geometry" />
        </mxCell>
        <mxCell id="TJSnQC33qVE7md1FfvLm-40" value="Chiefex Production Environment" style="shape=process;whiteSpace=wrap;html=1;backgroundOutline=1;fontSize=34;fontStyle=1" vertex="1" parent="1">
          <mxGeometry x="-10" y="-810" width="1170" height="90" as="geometry" />
        </mxCell>
        <mxCell id="TJSnQC33qVE7md1FfvLm-45" style="edgeStyle=orthogonalEdgeStyle;rounded=0;orthogonalLoop=1;jettySize=auto;html=1;entryX=0.5;entryY=1;entryDx=0;entryDy=0;" edge="1" parent="1" source="TJSnQC33qVE7md1FfvLm-49" target="TJSnQC33qVE7md1FfvLm-34">
          <mxGeometry relative="1" as="geometry">
            <mxPoint x="1111.9999999999995" y="-370.4000000000001" as="sourcePoint" />
          </mxGeometry>
        </mxCell>
        <mxCell id="TJSnQC33qVE7md1FfvLm-46" value="Developers" style="rounded=1;whiteSpace=wrap;html=1;fontSize=15;" vertex="1" parent="1">
          <mxGeometry x="1057" y="-302" width="120" height="60" as="geometry" />
        </mxCell>
        <mxCell id="TJSnQC33qVE7md1FfvLm-49" value="" style="sketch=0;outlineConnect=0;fontColor=#232F3E;gradientColor=none;fillColor=#232F3D;strokeColor=none;dashed=0;verticalLabelPosition=bottom;verticalAlign=top;align=center;html=1;fontSize=12;fontStyle=0;aspect=fixed;pointerEvents=1;shape=mxgraph.aws4.users;" vertex="1" parent="1">
          <mxGeometry x="1073" y="-400" width="78" height="78" as="geometry" />
        </mxCell>
        <mxCell id="TJSnQC33qVE7md1FfvLm-54" value="Github Action" style="rounded=0;whiteSpace=wrap;html=1;fontSize=40;" vertex="1" parent="1">
          <mxGeometry x="590" y="-656" width="340" height="60" as="geometry" />
        </mxCell>
      </root>
    </mxGraphModel>
  </diagram>
</mxfile>
